<svg xmlns="http://www.w3.org/2000/svg" width="247" height="27" viewBox="0 0 247 27">
  <g fill="none" fill-rule="evenodd">
    <path fill="#FFFFFF" d="M7.98,16.42 C6.8599944,16.42 5.8200048,16.2100021 4.86,15.79 C3.8999952,15.3699979 3.0600036,14.8000036 2.34,14.08 C1.6199964,13.3599964 1.0500021,12.5200048 0.63,11.56 C0.2099979,10.5999952 0,9.5600056 0,8.44 C0,7.3199944 0.2099979,6.2800048 0.63,5.32 C1.0500021,4.3599952 1.6199964,3.5200036 2.34,2.8 C3.0600036,2.0799964 3.8999952,1.5100021 4.86,1.09 C5.8200048,0.6699979 6.8599944,0.46 7.98,0.46 L44.4,0.46 C45.200004,0.46 45.8799972,0.7399972 46.44,1.3 C47.0000028,1.8600028 47.28,2.539996 47.28,3.34 C47.28,4.140004 47.0000028,4.8199972 46.44,5.38 C45.8799972,5.9400028 45.200004,6.22 44.4,6.22 L7.86,6.22 C7.259997,6.22 6.7300023,6.4299979 6.27,6.85 C5.8099977,7.2700021 5.58,7.7999968 5.58,8.44 C5.58,9.040003 5.8099977,9.5599978 6.27,10 C6.7300023,10.4400022 7.259997,10.66 7.86,10.66 L41.04,10.66 C42.1600056,10.66 43.2099951,10.8699979 44.19,11.29 C45.1700049,11.7100021 46.0199964,12.2799964 46.74,13 C47.4600036,13.7200036 48.0299979,14.5699951 48.45,15.55 C48.8700021,16.5300049 49.08,17.5799944 49.08,18.7 C49.08,19.8200056 48.8700021,20.8599952 48.45,21.82 C48.0299979,22.7800048 47.4600036,23.6199964 46.74,24.34 C46.0199964,25.0600036 45.1700049,25.619998 44.19,26.02 C43.2099951,26.420002 42.1600056,26.62 41.04,26.62 L4.68,26.62 C3.879996,26.62 3.2000028,26.3400028 2.64,25.78 C2.0799972,25.2199972 1.8,24.540004 1.8,23.74 C1.8,22.939996 2.0799972,22.2600028 2.64,21.7 C3.2000028,21.1399972 3.879996,20.86 4.68,20.86 L41.28,20.86 C41.880003,20.86 42.3999978,20.6500021 42.84,20.23 C43.2800022,19.8099979 43.5,19.300003 43.5,18.7 C43.5,18.0599968 43.2800022,17.5200022 42.84,17.08 C42.3999978,16.6399978 41.880003,16.42 41.28,16.42 L7.98,16.42 Z M60.84,23.74 C60.84,24.540004 60.5600028,25.2199972 60,25.78 C59.4399972,26.3400028 58.760004,26.62 57.96,26.62 C57.159996,26.62 56.4800028,26.3400028 55.92,25.78 C55.3599972,25.2199972 55.08,24.540004 55.08,23.74 L55.08,3.34 C55.08,2.539996 55.3599972,1.8600028 55.92,1.3 C56.4800028,0.7399972 57.159996,0.46 57.96,0.46 C58.760004,0.46 59.4399972,0.7399972 60,1.3 C60.5600028,1.8600028 60.84,2.539996 60.84,3.34 L60.84,23.74 Z M117.48,23.74 C117.48,24.540004 117.200003,25.2199972 116.64,25.78 C116.079997,26.3400028 115.400004,26.62 114.6,26.62 C113.799996,26.62 113.120003,26.3400028 112.56,25.78 C111.999997,25.2199972 111.72,24.540004 111.72,23.74 L111.72,10.66 C111.72,9.0199918 111.620001,8.2 111.42,8.2 C111.259999,8.2 110.700005,8.7399946 109.74,9.82 L96.54,24.82 C96.0199974,25.420003 95.3800038,25.8699985 94.62,26.17 C93.8599962,26.4700015 93.0400044,26.62 92.16,26.62 C91.2799956,26.62 90.4600038,26.4700015 89.7,26.17 C88.9399962,25.8699985 88.3000026,25.420003 87.78,24.82 L74.58,9.82 C73.6599954,8.7399946 73.100001,8.2 72.9,8.2 C72.699999,8.2 72.6,9.0199918 72.6,10.66 L72.6,23.74 C72.6,24.540004 72.3200028,25.2199972 71.76,25.78 C71.1999972,26.3400028 70.520004,26.62 69.72,26.62 C68.919996,26.62 68.2400028,26.3400028 67.68,25.78 C67.1199972,25.2199972 66.84,24.540004 66.84,23.74 L66.84,6.22 C66.84,4.619992 67.2999954,3.2600056 68.22,2.14 C69.1400046,1.0199944 70.399992,0.46 72,0.46 C72.9600048,0.46 73.8199962,0.6999976 74.58,1.18 C75.3400038,1.6600024 76.0399968,2.2399966 76.68,2.92 L90.48,18.64 C90.680001,18.840001 90.9299985,19.0499989 91.23,19.27 C91.5300015,19.4900011 91.8399984,19.6 92.16,19.6 C92.4800016,19.6 92.7899985,19.4900011 93.09,19.27 C93.3900015,19.0499989 93.639999,18.840001 93.84,18.64 L107.58,2.92 L107.64,2.92 C108.200003,2.1599962 108.879996,1.5600022 109.68,1.12 C110.480004,0.6799978 111.359995,0.46 112.32,0.46 C113.920008,0.46 115.179995,1.0199944 116.1,2.14 C117.020005,3.2600056 117.48,4.619992 117.48,6.22 L117.48,23.74 Z M123.48,3.34 C123.48,2.539996 123.759997,1.8600028 124.32,1.3 C124.880003,0.7399972 125.559996,0.46 126.36,0.46 L162.3,0.46 C163.420006,0.46 164.469995,0.6699979 165.45,1.09 C166.430005,1.5100021 167.289996,2.0799964 168.03,2.8 C168.770004,3.5200036 169.349998,4.3599952 169.77,5.32 C170.190002,6.2800048 170.4,7.3199944 170.4,8.44 C170.4,9.5600056 170.190002,10.5999952 169.77,11.56 C169.349998,12.5200048 168.770004,13.3599964 168.03,14.08 C167.289996,14.8000036 166.430005,15.3699979 165.45,15.79 C164.469995,16.2100021 163.420006,16.42 162.3,16.42 L131.1,16.42 C130.579997,16.5000004 130.140002,16.739998 129.78,17.14 C129.419998,17.540002 129.24,18.039997 129.24,18.64 L129.24,23.74 C129.24,24.540004 128.950003,25.2199972 128.37,25.78 C127.789997,26.3400028 127.120004,26.62 126.36,26.62 C125.559996,26.62 124.880003,26.3400028 124.32,25.78 C123.759997,25.2199972 123.48,24.540004 123.48,23.74 L123.48,17.98 C123.48,16.979995 123.659998,16.0300045 124.02,15.13 C124.380002,14.2299955 124.889997,13.4500033 125.55,12.79 C126.210003,12.1299967 126.969996,11.6100019 127.83,11.23 C128.690004,10.8499981 129.639995,10.66 130.68,10.66 L162.54,10.66 C163.140003,10.66 163.669998,10.4500021 164.13,10.03 C164.590002,9.6099979 164.82,9.0800032 164.82,8.44 C164.82,7.839997 164.590002,7.3200022 164.13,6.88 C163.669998,6.4399978 163.140003,6.22 162.54,6.22 L126.36,6.22 C125.559996,6.22 124.880003,5.9400028 124.32,5.38 C123.759997,4.8199972 123.48,4.140004 123.48,3.34 Z M184.62,26.62 C183.499994,26.62 182.440005,26.4100021 181.44,25.99 C180.439995,25.5699979 179.570004,25.0000036 178.83,24.28 C178.089996,23.5599964 177.500002,22.7200048 177.06,21.76 C176.619998,20.7999952 176.4,19.7600056 176.4,18.64 L176.4,3.34 C176.4,2.539996 176.679997,1.8600028 177.24,1.3 C177.800003,0.7399972 178.479996,0.46 179.28,0.46 C180.040004,0.46 180.709997,0.7399972 181.29,1.3 C181.870003,1.8600028 182.16,2.539996 182.16,3.34 L182.16,18.64 C182.16,19.240003 182.389998,19.7599978 182.85,20.2 C183.310002,20.6400022 183.839997,20.86 184.44,20.86 L220.44,20.86 C221.240004,20.86 221.919997,21.1399972 222.48,21.7 C223.040003,22.2600028 223.32,22.939996 223.32,23.74 C223.32,24.540004 223.040003,25.2199972 222.48,25.78 C221.919997,26.3400028 221.240004,26.62 220.44,26.62 L184.62,26.62 Z M235.08,23.74 C235.08,24.540004 234.800003,25.2199972 234.24,25.78 C233.679997,26.3400028 233.000004,26.62 232.2,26.62 C231.399996,26.62 230.720003,26.3400028 230.16,25.78 C229.599997,25.2199972 229.32,24.540004 229.32,23.74 L229.32,3.34 C229.32,2.539996 229.599997,1.8600028 230.16,1.3 C230.720003,0.7399972 231.399996,0.46 232.2,0.46 C233.000004,0.46 233.679997,0.7399972 234.24,1.3 C234.800003,1.8600028 235.08,2.539996 235.08,3.34 L235.08,23.74 Z M246.84,23.74 C246.84,24.540004 246.560003,25.2199972 246,25.78 C245.439997,26.3400028 244.760004,26.62 243.96,26.62 C243.159996,26.62 242.480003,26.3400028 241.92,25.78 C241.359997,25.2199972 241.08,24.540004 241.08,23.74 L241.08,3.34 C241.08,2.539996 241.359997,1.8600028 241.92,1.3 C242.480003,0.7399972 243.159996,0.46 243.96,0.46 C244.760004,0.46 245.439997,0.7399972 246,1.3 C246.560003,1.8600028 246.84,2.539996 246.84,3.34 L246.84,23.74 Z"/>
    <path fill="#EF233C" d="M93.4996757,1.69963247 L105.533863,15.3383784 C105.899267,15.7525024 105.859771,16.3844343 105.445647,16.7498379 C105.262947,16.9110434 105.027678,17 104.784025,17 L79.2159746,17 C78.6636898,17 78.2159746,16.5522847 78.2159746,16 C78.2159746,15.7563478 78.3049312,15.521078 78.4661367,15.3383784 L90.5003243,1.69963247 C91.2311314,0.871384447 92.4949952,0.792392955 93.3232433,1.52320004 C93.3856689,1.57828143 93.4445943,1.63720689 93.4996757,1.69963247 Z" transform="matrix(1 0 0 -1 0 17)"/>
  </g>
</svg>
